<?xml version="1.0" encoding="UTF-8" standalone="no"?>
<svg
   xmlns:dc="http://purl.org/dc/elements/1.1/"
   xmlns:cc="http://creativecommons.org/ns#"
   xmlns:rdf="http://www.w3.org/1999/02/22-rdf-syntax-ns#"
   xmlns:svg="http://www.w3.org/2000/svg"
   xmlns="http://www.w3.org/2000/svg"
   version="1.1"
   id="svg4058"
   viewBox="0 0 220 50.000001"
   height="50"
   width="220">
  <defs
     id="defs4060" />
  <metadata
     id="metadata4063">
    <rdf:RDF>
      <cc:Work
         rdf:about="">
        <dc:format>image/svg+xml</dc:format>
        <dc:type
           rdf:resource="http://purl.org/dc/dcmitype/StillImage" />
        <dc:title></dc:title>
      </cc:Work>
    </rdf:RDF>
  </metadata>
  <g
     transform="translate(-84.05223,-9.0481775)"
     id="layer1">
    <g
       id="g3390"
       transform="matrix(0.68492346,0,0,-0.68492346,105.69735,24.249753)">
      <path
         d="m 0,0 -1.948,-10.067 8.053,0 c 2.339,0 4.016,0.345 5.034,1.039 1.017,0.692 1.699,1.861 2.046,3.507 0.087,0.346 0.13,0.66 0.13,0.942 l 0,0.747 c 0,1.429 -0.455,2.424 -1.364,2.987 C 11.042,-0.282 9.678,0 7.859,0 L 0,0 Z m -3.507,-18.187 -2.273,-11.691 8.443,0 c 2.728,0 4.698,0.367 5.911,1.105 1.211,0.735 1.991,2.078 2.338,4.026 0.13,0.78 0.195,1.494 0.195,2.143 0,1.69 -0.531,2.847 -1.591,3.476 -1.062,0.627 -2.631,0.941 -4.709,0.941 l -8.314,0 z m -13.835,-19.875 9.029,46.246 17.666,0 c 2.121,0 4.048,-0.196 5.781,-0.585 1.731,-0.39 3.215,-0.996 4.449,-1.819 1.234,-0.823 2.197,-1.894 2.89,-3.215 0.692,-1.321 1.039,-2.913 1.039,-4.774 0,-0.477 -0.032,-0.974 -0.097,-1.493 -0.065,-0.521 -0.141,-1.083 -0.228,-1.69 -0.389,-2.122 -1.212,-3.919 -2.468,-5.39 -1.256,-1.473 -2.75,-2.577 -4.481,-3.313 1.731,-0.736 3.009,-1.873 3.832,-3.41 0.822,-1.537 1.234,-3.345 1.234,-5.423 0,-0.867 -0.065,-1.754 -0.195,-2.663 -0.649,-4.504 -2.544,-7.708 -5.683,-9.613 -3.14,-1.905 -7.264,-2.858 -12.373,-2.858 l -20.395,0 z"
         style="fill:#ffffff;fill-opacity:1;fill-rule:nonzero;stroke:none"
         id="path3392" />
    </g>
    <g
       id="g3394"
       transform="matrix(0.68492346,0,0,-0.68492346,140.57428,27.052973)">
      <path
         d="M 0,0 10.327,0 6.235,-21.108 c -0.477,-2.556 -1.159,-4.72 -2.046,-6.496 -0.888,-1.776 -2.036,-3.214 -3.442,-4.319 -1.408,-1.104 -3.107,-1.894 -5.099,-2.371 -1.992,-0.476 -4.33,-0.714 -7.014,-0.714 -4.591,0 -8.076,0.888 -10.457,2.663 -2.382,1.775 -3.573,4.503 -3.573,8.184 0,0.605 0.033,1.266 0.098,1.98 0.065,0.715 0.162,1.375 0.292,1.982 L -21.044,0 l 10.327,0 -4.027,-20.654 c -0.087,-0.433 -0.152,-0.856 -0.195,-1.266 -0.043,-0.412 -0.064,-0.726 -0.064,-0.942 0,-1.386 0.367,-2.361 1.104,-2.923 0.735,-0.564 1.818,-0.844 3.247,-0.844 1.082,0 1.991,0.086 2.728,0.26 0.736,0.172 1.353,0.486 1.851,0.941 0.497,0.455 0.909,1.071 1.234,1.852 0.325,0.779 0.595,1.753 0.812,2.922 L 0,0 Z"
         style="fill:#ffffff;fill-opacity:1;fill-rule:nonzero;stroke:none"
         id="path3396" />
    </g>
    <g
       id="g3398"
       transform="matrix(0.68492346,0,0,-0.68492346,153.83132,17.265373)">
      <path
         d="m 0,0 10.327,0 -9.418,-48.259 -10.327,0 L 0,0 Z"
         style="fill:#ffffff;fill-opacity:1;fill-rule:nonzero;stroke:none"
         id="path3400" />
    </g>
    <g
       id="g3402"
       transform="matrix(0.68492346,0,0,-0.68492346,173.89376,38.085303)">
      <path
         d="m 0,0 11.951,-17.861 -11.821,0 -9.483,14.874 -2.858,-14.874 -9.937,0 9.418,48.258 9.872,0 -5.131,-26.565 12.86,12.275 12.211,0 L 0,0 Z"
         style="fill:#ffffff;fill-opacity:1;fill-rule:nonzero;stroke:none"
         id="path3404" />
    </g>
    <g
       id="g3406"
       transform="matrix(0.68492346,0,0,-0.68492346,194.17954,34.393163)">
      <path
         d="m 0,0 c -0.52,-2.598 -0.779,-4.784 -0.779,-6.56 0,-2.857 0.734,-4.871 2.207,-6.04 1.472,-1.17 3.92,-1.754 7.34,-1.754 l 1.98,0 c 0.932,0 1.723,0.022 2.371,0.065 l 1.625,8.379 -6.691,0 3.443,8.833 15.719,0 -3.703,-19.225 c -0.434,-2.296 -1.159,-3.92 -2.176,-4.872 -1.018,-0.953 -2.479,-1.537 -4.385,-1.753 -1.644,-0.218 -3.344,-0.335 -5.098,-0.357 -1.753,-0.022 -3.324,-0.033 -4.708,-0.033 -3.465,0 -6.389,0.378 -8.77,1.136 -2.381,0.758 -4.309,1.829 -5.779,3.216 -1.473,1.385 -2.545,3.063 -3.216,5.033 -0.672,1.97 -1.006,4.19 -1.006,6.658 0,2.38 0.302,5.043 0.909,7.989 0.865,4.503 2.057,8.205 3.572,11.106 1.516,2.901 3.377,5.185 5.586,6.853 2.207,1.666 4.784,2.825 7.729,3.474 2.943,0.65 6.301,0.975 10.068,0.975 2.164,0 4.264,-0.012 6.299,-0.032 2.035,-0.023 4.223,-0.076 6.561,-0.163 l -3.444,-8.963 c -0.908,0.043 -1.785,0.075 -2.629,0.098 -0.845,0.021 -1.689,0.041 -2.533,0.064 -0.846,0.021 -1.732,0.033 -2.664,0.033 l -3.084,0 C 12.447,14.16 10.5,13.954 8.898,13.543 7.295,13.131 5.92,12.394 4.773,11.334 3.625,10.272 2.672,8.822 1.916,6.982 1.158,5.142 0.52,2.814 0,0"
         style="fill:#37ab9c;fill-opacity:1;fill-rule:nonzero;stroke:none"
         id="path3408" />
    </g>
    <g
       id="g3410"
       transform="matrix(0.68492346,0,0,-0.68492346,265.88986,32.613313)">
      <path
         d="m 0,0 -2.403,-12.471 c -0.173,-0.737 -0.26,-1.472 -0.26,-2.208 0,-1.04 0.293,-1.819 0.877,-2.339 0.585,-0.519 1.613,-0.779 3.085,-0.779 l 1.462,0 2.078,0 c 0.715,0 1.364,0.011 1.948,0.032 0.585,0.022 0.985,0.034 1.202,0.034 l -3.118,-8.12 -1.136,0 c -0.585,0 -1.234,-0.009 -1.949,-0.032 -0.714,-0.021 -1.439,-0.033 -2.176,-0.033 l -1.754,0 c -3.854,0 -6.657,0.845 -8.411,2.533 -1.753,1.69 -2.63,4.049 -2.63,7.08 0,0.606 0.042,1.255 0.13,1.949 0.086,0.692 0.195,1.407 0.325,2.143 l 5.521,28.448 10.587,1.235 -1.819,-9.354 10.392,0 L 8.834,0 0,0 Z"
         style="fill:#37ab9c;fill-opacity:1;fill-rule:nonzero;stroke:none"
         id="path3412" />
    </g>
    <g
       id="g3414"
       transform="matrix(0.68492346,0,0,-0.68492346,286.75462,31.367843)">
      <path
         d="M 0,0 C -2.209,0 -3.876,-0.552 -5.002,-1.656 -6.128,-2.761 -7.037,-4.72 -7.729,-7.534 l 5.65,0 c 1.082,0 1.981,0.043 2.695,0.13 0.715,0.086 1.31,0.249 1.786,0.487 0.477,0.237 0.845,0.541 1.105,0.909 0.26,0.367 0.475,0.833 0.649,1.397 0.173,0.519 0.26,1.082 0.26,1.688 0,0.909 -0.324,1.624 -0.974,2.144 C 2.792,-0.26 1.645,0 0,0 m -9.094,-14.679 0,-1.039 c 0.043,-1.602 0.531,-2.771 1.462,-3.508 0.931,-0.736 2.522,-1.103 4.774,-1.103 2.38,0 4.459,0.02 6.235,0.064 1.775,0.043 3.638,0.13 5.586,0.26 L 6.04,-27.474 c -1.343,-0.13 -2.955,-0.216 -4.839,-0.26 -1.884,-0.042 -3.887,-0.065 -6.008,-0.065 -2.685,0 -4.925,0.303 -6.722,0.909 -1.797,0.607 -3.227,1.45 -4.287,2.533 -1.062,1.083 -1.819,2.372 -2.273,3.865 -0.455,1.494 -0.682,3.106 -0.682,4.839 0,1.819 0.195,3.702 0.584,5.651 0.65,3.593 1.602,6.516 2.858,8.768 1.256,2.251 2.717,4.016 4.385,5.294 1.666,1.276 3.496,2.143 5.488,2.597 1.991,0.455 4.069,0.683 6.235,0.683 4.416,0 7.697,-0.823 9.84,-2.469 2.144,-1.645 3.215,-4.005 3.215,-7.079 C 13.79,-2.771 13.736,-3.345 13.672,-3.93 13.606,-4.514 13.51,-5.109 13.38,-5.716 12.643,-9.007 11.03,-11.323 8.541,-12.665 6.05,-14.008 2.445,-14.679 -2.273,-14.679 l -6.821,0 z"
         style="fill:#37ab9c;fill-opacity:1;fill-rule:nonzero;stroke:none"
         id="path3416" />
    </g>
    <g
       id="g3418"
       transform="matrix(0.68492346,0,0,-0.68492346,234.1153,26.154273)">
      <path
         d="m 0,0 c 9.856,-6.753 16.749,-15.412 19.568,-35.29 l 10.578,0 C 29.041,-15.471 17.204,1.659 0,11.041 -17.204,1.659 -29.043,-15.471 -30.148,-35.29 l 10.578,0 c 0,0 18.734,-0.707 31.109,18.793 0,0 -12.437,-6.625 -19.75,-3.875 -6.919,2.602 -3.576,8.599 -3.196,9.236 C -8.272,-6.472 -4.437,-3.041 0,0"
         style="fill:#37ab9c;fill-opacity:1;fill-rule:nonzero;stroke:none"
         id="path3420" />
    </g>
  </g>
</svg>
